# xmcd
#
# Track frame offsets:
#	187
#	16320
#	34437
#	58612
#	81702
#	91962
#	109160
#	134762
#	148845
#	165762
#	176787
#
# Disc length: 2539 seconds
#
# Revision: 2
# Processed by: cddbd v1.5.1PL2 Copyright (c) Steve Scherf et al.
# Submitted via: MusicManager 7.3.0.0 
#
DISCID=9d09e90b
DTITLE=Sonny Boy Williamson ll and The Yardbirds - Sonny Boy Williamson and The Yardbirds
DYEAR=1900
DGENRE=
TTITLE0=Bye Bye Bird
TTITLE1=Mister Downchild
TTITLE2=River Rhine
TTITLE3=23 Hours Too Long
TTITLE4=Lost Care
TTITLE5=Pontiac Blues
TTITLE6=Take It Easy Baby
TTITLE7=Out On The Water Coast
TTITLE8=I Don't Care No More
TTITLE9=Honey In Your Hips (Yardbirds)
TTITLE10=Western Arizona
EXTD=
EXTT0=live - 1963
EXTT1=live - 1963
EXTT2=live - 1963
EXTT3=live - 1963
EXTT4=live -1963
EXTT5=live - 1963
EXTT6=live - 1963
EXTT7=live - 1963
EXTT8=live - 1963
EXTT9=live - 1963
EXTT10=live - 1963
PLAYORDER=
